<?xml version="1.0" encoding="UTF-8"?>
<svg id="Layer_1" xmlns="http://www.w3.org/2000/svg" xmlns:xlink="http://www.w3.org/1999/xlink" version="1.1" viewBox="0 0 1146.4 293.1">
  <!-- Generator: Adobe Illustrator 30.0.0, SVG Export Plug-In . SVG Version: 2.1.1 Build 123)  -->
  <defs>
    <style>
      .st0 {
        fill: url(#linear-gradient);
      }

      .st1 {
        fill: #fff;
      }
    </style>
    <linearGradient id="linear-gradient" x1="514.3" y1="146.6" x2="691.8" y2="146.6" gradientUnits="userSpaceOnUse">
      <stop offset="0" stop-color="#2bd4e6"/>
      <stop offset="1" stop-color="#6e2bff"/>
    </linearGradient>
  </defs>
  <path class="st1" d="M257.5,154.1c3.2-1.6,7-2.4,11.3-2.4s10.3,1.3,14.2,3.9c3.9,2.6,6.3,6.4,7.4,11.3h36.6c-.9-8.4-3.9-15.8-9.2-22-5.3-6.2-12.1-11.1-20.6-14.6-8.4-3.5-17.9-5.2-28.5-5.2s-21.7,2-30.6,6.1-15.8,9.7-20.7,16.8c-4.3,6.2-6.7,13.4-7.3,21.5-1-6.6-2.8-12.6-5.5-18-4.2-8.4-10.4-14.9-18.3-19.5-8-4.6-17.6-6.9-28.9-6.9s-20.5,2-29.1,5.9c-8.7,3.9-15.5,9.5-20.5,16.7s-7.5,15.5-7.5,25,1.2,12.3,3.4,17.7c-2.6.9-5.4,1.7-8.6,2.3-3.4.7-7.4,1-11.8,1-7.1,0-11.8-1.3-14.3-3.8-2.4-2.5-3.6-6.9-3.6-13v-22.6h37.4v-26.6h-37.4v-24.5h-21l-16.1,27.2-18.4,8.2v15.7h18.4v27.5c0,8,1.7,15,5.1,20.9,3.4,5.9,8.5,10.4,15.3,13.6s15.5,4.7,26,4.7,11.3-.4,16.6-1.3c5.3-.9,9.6-1.9,13.1-2.9v-24.7c1,2.1,2.2,4.1,3.6,6.1,5.2,7.3,12.2,12.9,21.1,16.9,8.9,4,19.1,6,30.5,6s17.5-1.2,26.1-3.7,16.2-6,22.7-10.7v-21.2c-5.6,3.5-11.8,6.1-18.5,7.9-6.7,1.8-13.6,2.7-20.6,2.7s-13.4-1-18.4-2.9c-4.9-1.9-8.6-4.8-11.1-8.5-.7-1.1-1.3-2.2-1.8-3.5h72.4c1,6.2,3.3,11.8,6.7,16.9,4.9,7.3,11.9,12.9,20.7,16.9,8.9,4,19.1,6,30.6,6s20-1.7,28.5-5.2,15.3-8.4,20.6-14.6,8.3-13.6,9.2-21.9h-36.6c-1.1,4.5-3.5,8.2-7.4,11s-8.6,4.2-14.2,4.2-8.1-.8-11.3-2.4c-3.2-1.6-5.7-4-7.4-7.2s-2.6-7.1-2.6-11.7.9-8.6,2.6-11.8c1.7-3.2,4.2-5.6,7.4-7.3h.3ZM137.6,163.4c.4-1.3.8-2.6,1.4-3.8,1.7-3.4,4.1-6,7.3-7.9s7-2.9,11.5-2.9,7.6.8,10.6,2.4c3,1.6,5.3,3.9,7.1,6.9.9,1.6,1.7,3.3,2.2,5.3h-40.1Z"/>
  <polygon class="st1" points="420.7 181.8 387.8 99.8 329.9 99.8 329.9 218.4 365.5 218.4 365.5 132.1 402 218.4 439.4 218.4 475.6 131.9 475.6 218.4 511.5 218.4 511.5 99.8 453.4 99.8 420.7 181.8"/>
  <polygon class="st1" points="760.7 181.8 727.7 99.8 669.8 99.8 669.8 218.4 705.5 218.4 705.5 132.1 741.9 218.4 779.3 218.4 815.6 131.9 815.6 218.4 851.4 218.4 851.4 99.8 793.3 99.8 760.7 181.8"/>
  <path class="st1" d="M973,158.1c-2.2-.9-4.5-1.7-7-2.3.8-.4,1.5-.8,2.3-1.2,5.3-3.1,9.1-6.9,11.5-11.5,2.3-4.5,3.5-9.3,3.5-14.4,0-9.1-3.2-16.2-9.4-21.3-6.3-5.1-15-7.7-26.2-7.7h-88.7l9.2,57.7-9.2,60.9h92.1c8.9,0,16.4-1.4,22.4-4.4,6-2.9,10.5-6.9,13.5-12s4.4-10.9,4.4-17.3-1.5-11.4-4.5-16-7.6-8.1-13.7-10.7h0l-.2.2ZM933.7,124.8c3.7,0,6.5.9,8.5,2.8,2,1.9,3,4.1,3,6.9s-1.1,5.9-3.4,7.9-5.1,3-8.4,3h-31.5l-3.4-20.6h35.3,0ZM949.6,190.3c-2.4,2.1-5.6,3.1-9.8,3.1h-41.6l3.7-23.7h36.7c4.7,0,8.3,1.1,10.8,3.4,2.5,2.3,3.7,5.1,3.7,8.6s-1.2,6.6-3.5,8.6h0Z"/>
  <path class="st1" d="M1127.3,126.5c-6.1-9.3-14.6-16.5-25.5-21.7s-23.6-7.8-38.1-7.8-27.2,2.6-38.1,7.8c-10.9,5.2-19.4,12.4-25.5,21.7-6.1,9.3-9.1,20.1-9.1,32.6s3,23.3,9.1,32.6,14.6,16.5,25.5,21.7,23.6,7.8,38.1,7.8,27.2-2.6,38.1-7.8,19.4-12.4,25.5-21.7,9.1-20.1,9.1-32.6-3-23.3-9.1-32.6ZM1094.3,174.6c-2.8,4.4-6.8,7.8-12,10.1-5.2,2.4-11.4,3.6-18.6,3.6s-13.4-1.2-18.6-3.6-9.2-5.7-12-10.1c-2.8-4.4-4.2-9.6-4.2-15.6s1.4-11.2,4.2-15.6c2.8-4.4,6.8-7.8,12-10.1,5.2-2.4,11.4-3.6,18.6-3.6s13.4,1.2,18.6,3.6c5.2,2.4,9.2,5.8,12,10.1,2.8,4.4,4.2,9.6,4.2,15.6s-1.4,11.2-4.2,15.6Z"/>
  <path class="st0" d="M616.3,94.7l-19.7,46.9,52.4,130.8,4.2,10.5h38.6l-4.2-10.5-71.3-177.7ZM591.5,182.8h-23l.2-.6,18-42.1,4.8-11.2,19.9-46.5h0l24.8-58,1.6-3.6,4.4-10.5h-38.9l-4.5,10.5-12.1,28.3-14,32.8-42.8,100.1-.3.6h-.2l-15.1,35.8h25.4c0,.1,13.4.1,13.4.1h49.7c0,.1,3.9.2,3.9.2h9.3l-14.4-35.8h-10.1Z"/>
</svg>