<?xml version="1.0" encoding="UTF-8"?>
<svg id="Layer_1" data-name="Layer 1" xmlns="http://www.w3.org/2000/svg" viewBox="0 0 1126.29 272.57">
  <defs>
    <style>
      .cls-1 {
        fill: #9a6bff;
      }

      .cls-2 {
        fill: #fff;
      }
    </style>
  </defs>
  <path class="cls-2" d="M247.37,143.82c3.23-1.63,6.99-2.45,11.29-2.45,5.59,0,10.32,1.29,14.19,3.87,3.87,2.59,6.34,6.35,7.42,11.31h36.61c-.86-8.43-3.93-15.76-9.19-21.98-5.27-6.22-12.12-11.07-20.56-14.55-8.44-3.48-17.93-5.22-28.46-5.22-11.51,0-21.69,2.03-30.56,6.09s-15.78,9.67-20.72,16.84c-4.3,6.24-6.73,13.4-7.29,21.47-.98-6.6-2.82-12.6-5.53-17.99-4.25-8.43-10.35-14.94-18.31-19.53-7.96-4.59-17.58-6.88-28.87-6.88s-20.46,1.98-29.11,5.93c-8.65,3.95-15.48,9.52-20.48,16.68-5,7.17-7.5,15.5-7.5,24.98,0,6.43,1.16,12.31,3.42,17.67-2.6.93-5.45,1.72-8.58,2.34-3.44.69-7.37,1.03-11.77,1.03-7.1,0-11.85-1.26-14.27-3.79-2.42-2.53-3.63-6.85-3.63-12.97v-22.61h37.42v-26.57h-37.42v-24.51h-20.96l-16.13,27.2L0,128.4v15.66h18.38v27.52c0,8.01,1.69,14.97,5.08,20.87,3.39,5.91,8.49,10.44,15.32,13.6s15.51,4.74,26.05,4.74c5.8,0,11.34-.45,16.61-1.34,5.27-.9,9.62-1.87,13.06-2.93v-24.71c1.01,2.1,2.18,4.12,3.55,6.05,5.16,7.28,12.2,12.92,21.13,16.92,8.92,4.01,19.08,6.01,30.48,6.01,8.81,0,17.52-1.24,26.13-3.72,8.6-2.48,16.18-6.03,22.74-10.68v-21.19c-5.59,3.48-11.75,6.12-18.46,7.91-6.72,1.79-13.57,2.69-20.56,2.69s-13.44-.97-18.38-2.93c-4.95-1.95-8.63-4.77-11.05-8.46-.71-1.08-1.3-2.25-1.81-3.48h72.4c1.03,6.16,3.26,11.81,6.74,16.92,4.94,7.28,11.85,12.92,20.72,16.92,8.87,4.01,19.05,6.01,30.56,6.01,10.54,0,20.02-1.74,28.46-5.22s15.29-8.36,20.56-14.63,8.33-13.57,9.19-21.9h-36.61c-1.08,4.53-3.55,8.2-7.42,10.99-3.87,2.79-8.6,4.19-14.19,4.19-4.3,0-8.06-.82-11.29-2.45-3.23-1.63-5.7-4.03-7.42-7.2-1.72-3.16-2.58-7.06-2.58-11.7s.86-8.56,2.58-11.78c1.72-3.21,4.19-5.64,7.42-7.27h-.02ZM127.49,153.07c.38-1.32.83-2.6,1.42-3.8,1.67-3.37,4.08-6.01,7.26-7.91,3.17-1.9,7.02-2.85,11.53-2.85,4.08,0,7.6.79,10.56,2.37,2.96,1.58,5.32,3.87,7.1,6.88.92,1.56,1.66,3.33,2.25,5.3h-40.12Z"/>
  <polygon class="cls-2" points="410.63 171.52 377.67 89.5 319.78 89.5 319.78 208.1 355.42 208.1 355.42 121.77 391.87 208.1 429.28 208.1 465.57 121.58 465.57 208.1 501.37 208.1 501.37 89.5 443.31 89.5 410.63 171.52"/>
  <polygon class="cls-2" points="750.59 171.52 717.63 89.5 659.74 89.5 659.74 208.1 695.38 208.1 695.38 121.77 731.82 208.1 769.24 208.1 805.53 121.58 805.53 208.1 841.33 208.1 841.33 89.5 783.27 89.5 750.59 171.52"/>
  <path class="cls-2" d="M962.93,147.77c-2.15-.91-4.51-1.66-7.04-2.28.79-.38,1.55-.78,2.28-1.2,5.32-3.11,9.14-6.93,11.45-11.47,2.31-4.53,3.47-9.33,3.47-14.39,0-9.06-3.15-16.15-9.44-21.27-6.29-5.11-15.03-7.67-26.21-7.67h-88.7l9.19,57.72-9.19,60.88h92.09c8.92,0,16.39-1.45,22.42-4.35,6.02-2.9,10.51-6.9,13.47-12.02,2.95-5.11,4.43-10.88,4.43-17.32s-1.51-11.44-4.52-15.97-7.58-8.09-13.71-10.67h.01ZM923.58,114.48c3.65,0,6.48.92,8.47,2.77,1.99,1.85,2.98,4.14,2.98,6.88,0,3.27-1.13,5.91-3.39,7.91s-5.06,3.01-8.39,3.01h-31.54l-3.42-20.56h35.29ZM939.54,180.03c-2.37,2.06-5.64,3.08-9.84,3.08h-41.57l3.71-23.72h36.74c4.73,0,8.33,1.13,10.81,3.4,2.47,2.27,3.71,5.14,3.71,8.62,0,3.69-1.18,6.56-3.55,8.62h-.01Z"/>
  <path class="cls-2" d="M1117.18,116.22c-6.08-9.28-14.57-16.5-25.48-21.66s-23.63-7.75-38.14-7.75-27.23,2.58-38.14,7.75c-10.91,5.17-19.41,12.39-25.48,21.66-6.08,9.28-9.11,20.14-9.11,32.58s3.04,23.3,9.11,32.58,14.57,16.5,25.48,21.67c10.91,5.16,23.62,7.75,38.14,7.75s27.23-2.58,38.14-7.75,19.4-12.39,25.48-21.67c6.07-9.28,9.11-20.14,9.11-32.58s-3.04-23.3-9.11-32.58ZM1084.2,164.37c-2.8,4.38-6.8,7.75-12.01,10.12-5.22,2.37-11.43,3.56-18.63,3.56s-13.41-1.19-18.63-3.56-9.22-5.74-12.02-10.12c-2.8-4.37-4.19-9.57-4.19-15.58s1.4-11.2,4.19-15.58c2.8-4.37,6.8-7.75,12.02-10.12,5.21-2.37,11.42-3.56,18.63-3.56s13.41,1.19,18.63,3.56c5.21,2.37,9.22,5.75,12.01,10.12,2.79,4.38,4.19,9.57,4.19,15.58s-1.4,11.2-4.19,15.58Z"/>
  <polygon class="cls-1" points="606.27 84.43 586.5 131.31 638.92 262.1 643.12 272.57 681.69 272.57 677.49 262.1 606.27 84.43"/>
  <polygon class="cls-1" points="581.42 172.54 558.39 172.47 558.62 171.95 576.62 129.86 581.42 118.64 601.33 72.09 601.33 72.08 626.14 14.09 627.69 10.47 632.17 0 593.23 0 588.75 10.47 576.62 38.83 562.59 71.64 519.79 171.69 519.5 172.36 519.34 172.36 504.21 208.1 529.6 208.18 529.61 208.18 543.05 208.22 592.68 208.37 596.62 208.39 605.92 208.41 591.52 172.57 581.42 172.54"/>
</svg>